<svg xmlns="http://www.w3.org/2000/svg" xmlns:xlink="http://www.w3.org/1999/xlink" width="175.232" height="45.445" viewBox="0 0 175.232 45.445">
  <defs>
    <clipPath id="clip-path">
      <rect id="Rectangle_86" data-name="Rectangle 86" width="60.508" height="28.101" fill="#04091d"/>
    </clipPath>
  </defs>
  <g id="Group_4260" data-name="Group 4260" transform="translate(-140 -110)">
    <g id="Group_3913" data-name="Group 3913" transform="translate(156.864 52)">
      <g id="Group_3900" data-name="Group 3900" transform="translate(110.439 69.999)">
        <g id="Group_3899" data-name="Group 3899">
          <rect id="Rectangle_66" data-name="Rectangle 66" width="4.958" height="21.463" rx="1" fill="#04091d"/>
          <path id="Path_456" data-name="Path 456" d="M-392.68,1447.222v2.291a5.185,5.185,0,0,0-1.987-1.827,6.245,6.245,0,0,0-3-.7,6.672,6.672,0,0,0-3.624,1.017,12.165,12.165,0,0,0-1.595,1.4v11.784a6.624,6.624,0,0,0,1.595,1.418,6.563,6.563,0,0,0,3.595,1.029,6.227,6.227,0,0,0,3-.7,5.325,5.325,0,0,0,2.017-1.827v2.291h3.375v-16.185Zm-1.03,11.024a3.356,3.356,0,0,1-2.51,1.072,3.327,3.327,0,0,1-2.51-1.089,4.117,4.117,0,0,1-1.03-2.945,4.024,4.024,0,0,1,1.03-2.916,3.371,3.371,0,0,1,2.51-1.055,3.356,3.356,0,0,1,2.51,1.071,4.073,4.073,0,0,1,1.03,2.932A4.068,4.068,0,0,1-393.709,1458.246Z" transform="translate(409.641 -1441.944)" fill="#04091d"/>
          <path id="Path_480" data-name="Path 480" d="M242.1,23.869a6.932,6.932,0,0,1,3.1-.666,7.388,7.388,0,0,1,3.76.972,6.938,6.938,0,0,1,2.662,2.776,8.669,8.669,0,0,1,.978,4.192,8.746,8.746,0,0,1-.978,4.206,7.01,7.01,0,0,1-2.662,2.8,7.31,7.31,0,0,1-3.76.986,6.929,6.929,0,0,1-3.1-.653,5.324,5.324,0,0,1-2.076-1.735v2.165h-5.144V18.372h5.144v7.246a5.162,5.162,0,0,1,2.076-1.749m4.2,4.484a3.679,3.679,0,0,0-2.632-1.014,3.614,3.614,0,0,0-2.6,1.027A3.707,3.707,0,0,0,240,31.17a3.7,3.7,0,0,0,1.068,2.8,3.81,3.81,0,0,0,5.219-.014,3.726,3.726,0,0,0,1.083-2.818,3.663,3.663,0,0,0-1.068-2.79" transform="translate(-212.788 -17.144)" fill="#04091d"/>
        </g>
        <g id="Group_3869" data-name="Group 3869" transform="translate(42.004 15.958)">
          <ellipse id="Ellipse_15" data-name="Ellipse 15" cx="2.963" cy="2.963" rx="2.963" ry="2.963" transform="translate(0 0)" fill="#04091d"/>
        </g>
      </g>
      <g id="Group_3912" data-name="Group 3912" transform="translate(43.414 67)">
        <g id="Group_3911" data-name="Group 3911" clip-path="url(#clip-path)">
          <path id="Path_494" data-name="Path 494" d="M283.817,57.512a3.929,3.929,0,0,0,3.407,4.2A16.2,16.2,0,0,0,293.2,61.4c.712-.138.983.07,1.016.8.01.233,0,.467,0,.7,0,1.79-.105,2.021-1.773,2.643-3.308,1.234-9.421,1.191-12.431-2.995a8.71,8.71,0,0,1-1.639-4.252,16.272,16.272,0,0,1,.474-7.065,8.575,8.575,0,0,1,7.594-6.036,10.9,10.9,0,0,1,5.974.681,8.2,8.2,0,0,1,3.046,2.3,5.576,5.576,0,0,1,.62,6.126,5.178,5.178,0,0,1-4.955,3.171c-2.169.09-4.344.031-6.516.037h-.8m-.048-3.821a1.113,1.113,0,0,0,.24.067c1.82.005,3.639.016,5.459.006a1.959,1.959,0,0,0,2.014-1.833,2.032,2.032,0,0,0-1.489-2.426,7.159,7.159,0,0,0-2.367-.106,3.924,3.924,0,0,0-3.858,4.292" transform="translate(-255.352 -41.365)" fill="#04091d"/>
          <path id="Path_495" data-name="Path 495" d="M494.015,30.451c.561,0,1.123.023,1.682-.006a1.324,1.324,0,0,1,1.34.808c.756,1.421,1.539,2.827,2.312,4.239.1.184.194.374.307.55.558.866,1.218.85,1.671-.071.781-1.591,1.6-3.17,2.272-4.805a2.788,2.788,0,0,1,3.081-1.968c.743.059,1.495.006,2.243.011.915.006,1.174.449.709,1.258-1.2,2.084-2.41,4.159-3.616,6.237-.527.908-1.045,1.822-1.579,2.725a1.755,1.755,0,0,0,.058,2.03c1.788,2.707,3.557,5.426,5.332,8.142a7.367,7.367,0,0,1,.547.894c.261.561.041.924-.575.933q-1.787.029-3.575,0c-.958-.013-1.426-.722-1.855-1.422-.939-1.532-1.845-3.084-2.765-4.627-.143-.241-.282-.484-.433-.72-.46-.718-1.06-.722-1.523.009-1.173,1.854-2.361,3.7-3.486,5.582a2.258,2.258,0,0,1-2.181,1.217c-.957-.027-1.916,0-2.874-.007-.3,0-.638.043-.8-.3-.146-.314.023-.581.2-.841,1.912-2.849,3.792-5.72,5.745-8.54a2.147,2.147,0,0,0,.014-2.7c-1.473-2.244-2.91-4.511-4.361-6.768-.1-.157-.21-.31-.3-.474-.5-.919-.235-1.371.8-1.376.538,0,1.075,0,1.612,0v-.018" transform="translate(-449.972 -26.786)" fill="#04091d"/>
          <path id="Path_496" data-name="Path 496" d="M5.433,11.841c1.705,0,3.313.009,4.921,0,1.581-.011,1.342.057,1.353,1.385,0,.3,0,.607,0,.91a2.087,2.087,0,0,1-2.119,2.131c-1.352.015-2.7,0-4.075,0a2.685,2.685,0,0,0-.075.453,50.257,50.257,0,0,0,.213,6.988,13.35,13.35,0,0,0,.832,3.027c.326.786.155,1.089-.7,1.258a4.27,4.27,0,0,1-4.993-2.54,8.409,8.409,0,0,1-.754-3.532C.019,17.16-.047,12.4.055,7.636.139,3.745,2.877.86,6.87.184A36.686,36.686,0,0,1,12.535.035a.689.689,0,0,1,.743.756c.008.653.036,1.309-.011,1.96a1.9,1.9,0,0,1-1.845,1.6,17.776,17.776,0,0,0-2.793.143,3.44,3.44,0,0,0-3.2,3.8c0,1.161,0,2.322,0,3.549" transform="translate(0 0)" fill="#04091d"/>
          <path id="Path_497" data-name="Path 497" d="M182.91,10.53q0-4.412,0-8.823c0-.879.282-1.253,1.155-1.352a6.46,6.46,0,0,1,3.1.348,1.488,1.488,0,0,1,1.15,1.694q0,7.493,0,14.985a15.982,15.982,0,0,0,1.14,6.634c.25.562-.061.864-.561.962-2.077.406-3.656.068-4.906-1.9a8.192,8.192,0,0,1-1.079-4.5c-.01-2.684,0-5.369,0-8.053" transform="translate(-167.879 -0.278)" fill="#04091d"/>
        </g>
      </g>
    </g>
    <g id="Group_3933" data-name="Group 3933" transform="translate(140 109.999)">
      <path id="Path_504" data-name="Path 504" d="M0,0H6.538V23.4H0Z" transform="translate(25.57 22.05)" fill="#094afe"/>
      <path id="Path_503" data-name="Path 503" d="M0,0H6.546V23.336H0Z" transform="translate(13.321 0.001)" fill="#0054f0"/>
      <path id="Path_505" data-name="Path 505" d="M0,0H23.41V6.289H0Z" transform="translate(22.076 13.634)" fill="#0054f0"/>
      <path id="Path_506" data-name="Path 506" d="M0,0H23.373V6.286H0Z" transform="translate(0 25.484)" fill="#0054f0"/>
      <rect id="Rectangle_95" data-name="Rectangle 95" width="6.569" height="7.198" transform="translate(13.327 33.92)" fill="#0054f0"/>
      <rect id="Rectangle_96" data-name="Rectangle 96" width="6.541" height="7.049" transform="translate(25.594 4.46)" fill="#0054f0"/>
      <rect id="Rectangle_97" data-name="Rectangle 97" width="7.134" height="6.321" transform="translate(34.282 25.479)" fill="#0054f0"/>
      <rect id="Rectangle_98" data-name="Rectangle 98" width="7.093" height="6.255" transform="translate(4.054 13.651)" fill="#0054f0"/>
    </g>
  </g>
</svg>
