<svg xmlns="http://www.w3.org/2000/svg" width="52" height="52" viewBox="0 0 52 52">
  <g id="Group_4159" data-name="Group 4159" transform="translate(-329 -7532)">
    <circle id="Ellipse_29" data-name="Ellipse 29" cx="26" cy="26" r="26" transform="translate(329 7532)" fill="#fff"/>
    <path id="pinterest-p" d="M0,9.251A8.553,8.553,0,0,1,.581,6.1a8.084,8.084,0,0,1,1.6-2.58A10.953,10.953,0,0,1,7.406.4,12.246,12.246,0,0,1,10.537,0a10.232,10.232,0,0,1,4.556,1.031,8.6,8.6,0,0,1,3.424,3,7.827,7.827,0,0,1,1.317,4.447,14.364,14.364,0,0,1-.294,2.913,11.769,11.769,0,0,1-.93,2.743,9.555,9.555,0,0,1-1.549,2.316,6.722,6.722,0,0,1-2.247,1.6,7.087,7.087,0,0,1-2.929.6,4.817,4.817,0,0,1-2.092-.5,3.1,3.1,0,0,1-1.488-1.364q-.155.6-.434,1.743T7.508,20q-.085.333-.318,1.1a7.423,7.423,0,0,1-.4,1.1l-.5.968a11.117,11.117,0,0,1-.713,1.2q-.387.566-.96,1.34l-.217.077-.14-.155q-.233-2.433-.233-2.913a17.516,17.516,0,0,1,.333-3.2q.333-1.775,1.031-4.454T6.2,11.916A5.948,5.948,0,0,1,5.7,9.3,4.09,4.09,0,0,1,6.509,6.88,2.424,2.424,0,0,1,8.554,5.749a1.816,1.816,0,0,1,1.472.627,2.386,2.386,0,0,1,.526,1.588,9.806,9.806,0,0,1-.682,2.96,9.776,9.776,0,0,0-.682,2.9,2.109,2.109,0,0,0,.7,1.619,2.4,2.4,0,0,0,1.689.643,3.314,3.314,0,0,0,1.581-.387,3.562,3.562,0,0,0,1.216-1.054,8.947,8.947,0,0,0,.868-1.472,8.415,8.415,0,0,0,.589-1.713,17.27,17.27,0,0,0,.31-1.72,12.346,12.346,0,0,0,.1-1.542,5.275,5.275,0,0,0-1.7-4.176,6.446,6.446,0,0,0-4.425-1.5A7.153,7.153,0,0,0,4.943,4.532a6.777,6.777,0,0,0-2.076,5.09,4.9,4.9,0,0,0,.612,2.324q.225.372.418.7a1.2,1.2,0,0,1,.195.473,3.766,3.766,0,0,1-.233,1.131q-.233.7-.573.7-.031,0-.264-.047a3.175,3.175,0,0,1-1.4-.868,4.515,4.515,0,0,1-.945-1.464A9.541,9.541,0,0,1,.17,10.9,8.336,8.336,0,0,1,0,9.251Z" transform="translate(345 7546)" fill="#0054f0"/>
  </g>
</svg>
