<svg xmlns="http://www.w3.org/2000/svg" xmlns:xlink="http://www.w3.org/1999/xlink" width="83" height="84" viewBox="0 0 83 84">
  <defs>
    <filter id="Ellipse_2" x="0" y="0" width="83" height="84" filterUnits="userSpaceOnUse">
      <feOffset dy="3" input="SourceAlpha"/>
      <feGaussianBlur stdDeviation="5" result="blur"/>
      <feFlood flood-opacity="0.161"/>
      <feComposite operator="in" in2="blur"/>
      <feComposite in="SourceGraphic"/>
    </filter>
  </defs>
  <g id="Group_3587" data-name="Group 3587" transform="translate(14.662 12.332)">
    <g transform="matrix(1, 0, 0, 1, -14.66, -12.33)" filter="url(#Ellipse_2)">
      <ellipse id="Ellipse_2-2" data-name="Ellipse 2" cx="26.5" cy="27" rx="26.5" ry="27" transform="translate(15 12)" fill="#fff"/>
    </g>
    <path id="play" d="M9,8.716a1.278,1.278,0,0,1,.143-.59,1.1,1.1,0,0,1,1.55-.472l13.721,8.118a1.171,1.171,0,0,1,.443.473,1.258,1.258,0,0,1-.443,1.653L10.693,26.015a1.085,1.085,0,0,1-.553.154A1.181,1.181,0,0,1,9,24.952Z" transform="translate(11.445 10.278)" fill="#0054f0"/>
  </g>
</svg>
