<svg xmlns="http://www.w3.org/2000/svg" width="52" height="52" viewBox="0 0 52 52">
  <g id="Group_4158" data-name="Group 4158" transform="translate(-255 -7532)">
    <circle id="Ellipse_29" data-name="Ellipse 29" cx="26" cy="26" r="26" transform="translate(255 7532)" fill="#fff"/>
    <path id="twitter-bird" d="M25.111,2.416a10.432,10.432,0,0,1-2.574,2.66q.015.3.015.667a14.8,14.8,0,0,1-2.443,8.1A15.651,15.651,0,0,1,17.161,17.2a13.147,13.147,0,0,1-4.114,2.33A15.027,15.027,0,0,1,7.9,20.4,14.339,14.339,0,0,1,0,18.084a11.139,11.139,0,0,0,1.229.071,10.1,10.1,0,0,0,6.4-2.207A5,5,0,0,1,4.636,14.92,5.063,5.063,0,0,1,2.818,12.37a5.15,5.15,0,0,0,2.326-.086,5.021,5.021,0,0,1-2.957-1.775A4.985,4.985,0,0,1,1.012,7.235V7.171a5.084,5.084,0,0,0,2.334.645A5.118,5.118,0,0,1,1.672,5.98a5.027,5.027,0,0,1-.619-2.45A5.062,5.062,0,0,1,1.75.942a14.668,14.668,0,0,0,4.7,3.8,14.316,14.316,0,0,0,5.92,1.581,5.038,5.038,0,0,1-.135-1.173,4.963,4.963,0,0,1,1.509-3.642,5.154,5.154,0,0,1,7.4.115A10.261,10.261,0,0,0,24.415.375a4.981,4.981,0,0,1-2.263,2.851A10.3,10.3,0,0,0,25.111,2.416Z" transform="translate(269 7548)" fill="#0054f0"/>
  </g>
</svg>
